<svg id="svg" version="1.1" xmlns="http://www.w3.org/2000/svg" xmlns:xlink="http://www.w3.org/1999/xlink" width="400" height="400" viewBox="0, 0, 400,400"><g id="svgg"><path id="path0" d="M196.563 8.041 C 196.104 8.084,194.557 8.218,193.125 8.339 C 146.145 12.306,105.189 45.569,91.297 91.042 C 82.037 121.352,85.523 155.022,100.748 182.311 C 101.425 183.524,124.854 231.547,152.813 289.028 C 187.012 359.340,203.740 393.522,203.934 393.488 C 204.093 393.460,227.536 345.531,256.031 286.979 C 284.525 228.427,308.466 179.280,309.232 177.764 C 324.361 147.818,325.476 110.726,312.181 79.665 C 295.137 39.846,258.964 13.129,215.729 8.425 C 212.802 8.106,198.847 7.827,196.563 8.041 M211.979 13.547 C 289.899 19.209,337.539 101.526,303.549 171.771 C 271.911 237.155,186.284 254.467,131.291 206.597 C 83.307 164.828,80.839 90.807,125.927 45.719 C 145.413 26.233,168.703 15.785,197.813 13.470 C 199.893 13.304,209.349 13.356,211.979 13.547 " stroke="none" fill="#048ccc" fill-rule="evenodd"></path><path id="path1" d="M196.042 22.316 C 136.914 27.030,94.486 81.064,103.967 139.577 C 112.007 189.190,156.013 225.642,206.250 224.301 C 271.315 222.563,317.816 161.234,301.840 98.229 C 289.811 50.788,244.721 18.435,196.042 22.316 M157.708 23.438 C 157.193 23.714,156.865 23.940,156.979 23.940 C 157.094 23.940,157.609 23.714,158.125 23.438 C 158.641 23.161,158.969 22.935,158.854 22.935 C 158.740 22.935,158.224 23.161,157.708 23.438 M154.323 25.014 C 153.893 25.241,153.542 25.473,153.542 25.530 C 153.542 25.623,155.187 24.854,155.399 24.662 C 155.639 24.445,155.013 24.650,154.323 25.014 M151.261 26.690 C 101.016 53.734,79.844 115.856,103.021 168.229 C 112.620 189.921,130.880 209.855,150.521 220.086 C 152.932 221.341,152.484 221.029,148.854 218.923 C 106.435 194.313,85.398 144.443,97.326 96.771 C 104.670 67.420,124.332 41.766,150.580 27.288 C 152.978 25.965,153.497 25.655,153.333 25.640 C 153.276 25.635,152.344 26.107,151.261 26.690 M215.000 27.380 C 289.167 36.838,325.491 121.678,280.834 181.146 C 237.155 239.313,146.340 229.529,116.167 163.405 C 88.447 102.657,128.592 33.696,195.521 27.092 C 198.546 26.794,211.956 26.992,215.000 27.380 M183.750 55.076 L 183.750 65.360 182.135 65.619 C 170.863 67.432,160.093 77.601,156.090 90.213 C 154.717 94.537,154.763 93.343,154.841 122.813 L 154.911 149.479 155.468 151.979 C 158.920 167.472,169.469 178.868,182.760 181.462 L 183.958 181.696 183.958 191.994 L 183.958 202.292 190.833 202.292 L 197.708 202.292 197.708 192.188 L 197.708 182.083 204.688 182.083 L 211.667 182.083 211.667 192.188 L 211.667 202.292 218.542 202.292 L 225.417 202.292 225.417 191.904 L 225.417 181.515 227.240 181.156 C 241.325 178.379,252.297 166.264,253.759 151.875 C 253.904 150.449,253.959 143.281,253.918 131.284 L 253.854 112.880 253.362 112.482 C 252.884 112.094,252.139 112.083,225.592 112.083 L 198.314 112.083 197.803 112.595 L 197.292 113.106 197.292 122.604 L 197.292 132.102 197.803 132.614 L 198.314 133.125 212.988 133.125 C 227.123 133.125,227.680 133.140,228.154 133.523 L 228.646 133.921 228.708 141.689 C 228.745 146.434,228.684 150.028,228.549 150.926 C 227.918 155.124,224.483 158.728,219.583 160.335 C 217.954 160.870,195.049 161.044,192.151 160.544 C 185.364 159.372,180.506 152.960,179.585 143.958 C 179.184 140.039,179.331 97.771,179.750 96.560 C 180.711 93.779,184.770 89.219,187.815 87.500 L 189.475 86.563 216.873 86.458 C 245.995 86.348,244.882 86.396,245.203 85.240 C 245.487 84.219,245.486 67.446,245.203 66.425 C 244.869 65.224,244.735 65.208,234.552 65.208 L 225.417 65.208 225.417 55.000 L 225.417 44.792 218.438 44.792 L 211.458 44.792 211.458 55.000 L 211.458 65.208 204.583 65.208 L 197.708 65.208 197.708 55.000 L 197.708 44.792 190.729 44.792 L 183.750 44.792 183.750 55.076 M152.500 221.145 C 152.500 221.283,156.692 223.378,156.784 223.285 C 156.825 223.245,155.877 222.724,154.679 222.128 C 153.481 221.532,152.500 221.090,152.500 221.145 M158.333 224.063 C 158.620 224.226,158.948 224.360,159.063 224.360 C 159.177 224.360,159.036 224.226,158.750 224.063 C 158.464 223.899,158.135 223.765,158.021 223.765 C 157.906 223.765,158.047 223.899,158.333 224.063 M160.208 224.896 C 160.495 225.060,160.823 225.194,160.938 225.194 C 161.052 225.194,160.911 225.060,160.625 224.896 C 160.339 224.732,160.010 224.598,159.896 224.598 C 159.781 224.598,159.922 224.732,160.208 224.896 " stroke="none" fill="#fafbfb" fill-rule="evenodd"></path><path id="path2" d="M197.892 1.888 C 156.667 3.762,118.911 26.374,97.553 61.979 C 75.171 99.291,74.197 146.324,95.015 184.610 C 95.935 186.303,119.545 234.685,147.480 292.125 C 196.203 392.310,198.317 396.610,199.396 397.723 C 201.928 400.336,206.484 400.229,208.798 397.502 C 209.218 397.008,227.942 358.739,257.593 297.777 C 284.056 243.369,308.272 193.604,311.407 187.188 C 314.541 180.771,317.767 174.165,318.575 172.507 C 319.382 170.850,319.959 169.465,319.856 169.431 C 319.754 169.397,320.340 167.361,321.158 164.907 C 348.728 82.279,284.948 -2.070,197.892 1.888 M214.583 8.227 C 285.841 15.189,334.186 81.876,318.626 151.745 C 316.547 161.084,313.402 169.650,308.332 179.792 C 307.100 182.255,283.196 231.333,255.211 288.854 C 227.226 346.375,204.223 393.504,204.092 393.586 C 203.685 393.841,204.527 395.556,152.934 289.479 C 125.180 232.417,101.530 183.968,100.379 181.816 C 76.224 136.653,82.998 82.794,117.535 45.417 C 142.178 18.747,178.762 4.728,214.583 8.227 M198.188 13.557 C 145.335 16.434,101.707 56.990,95.003 109.479 C 86.963 172.422,133.235 228.915,196.627 233.555 C 253.155 237.692,304.204 197.223,313.111 141.213 C 324.174 71.639,268.443 9.733,198.188 13.557 M211.875 22.308 C 283.433 27.895,326.607 104.991,294.057 169.063 C 258.994 238.082,161.665 243.534,119.259 178.854 C 73.157 108.538,128.045 15.763,211.875 22.308 M196.354 27.103 C 137.796 31.874,97.059 87.013,109.789 144.271 C 120.490 192.403,166.827 225.051,215.625 218.841 C 273.128 211.523,311.198 156.046,297.282 99.844 C 286.058 54.512,242.779 23.320,196.354 27.103 M197.708 55.000 L 197.708 65.208 204.583 65.208 L 211.458 65.208 211.458 55.000 L 211.458 44.792 218.438 44.792 L 225.417 44.792 225.417 55.000 L 225.417 65.208 234.905 65.208 L 244.394 65.208 244.905 65.720 L 245.417 66.231 245.417 75.833 L 245.417 85.436 244.905 85.947 L 244.394 86.458 217.353 86.463 L 190.313 86.468 189.162 86.942 C 185.885 88.290,181.944 92.171,180.150 95.817 L 179.479 97.179 179.482 120.413 C 179.485 141.674,179.516 143.821,179.852 145.709 C 181.219 153.386,185.358 158.655,191.354 160.346 C 192.916 160.787,213.396 161.024,216.909 160.641 C 222.556 160.027,226.807 156.812,228.206 152.098 C 228.792 150.123,228.703 134.169,228.103 133.626 C 227.683 133.246,227.045 133.225,212.774 133.125 C 198.337 133.024,197.874 133.008,197.587 132.616 C 197.046 131.876,197.159 113.049,197.708 112.500 C 198.365 111.843,252.885 111.843,253.542 112.500 C 254.029 112.987,254.204 149.419,253.736 152.850 C 251.827 166.836,241.301 178.275,227.708 181.133 L 225.521 181.593 225.467 192.050 L 225.413 202.506 218.488 202.451 L 211.563 202.396 211.508 192.240 L 211.454 182.083 204.581 182.083 L 197.708 182.083 197.708 192.294 L 197.708 202.506 190.781 202.451 L 183.854 202.396 183.800 192.059 L 183.746 181.723 181.946 181.365 C 168.765 178.748,158.022 166.292,155.072 150.205 C 154.621 147.749,154.371 100.588,154.786 96.250 C 156.181 81.641,169.403 66.997,182.552 65.496 L 183.750 65.359 183.750 55.075 L 183.750 44.792 190.729 44.792 L 197.708 44.792 197.708 55.000 " stroke="none" fill="#040424" fill-rule="evenodd"></path><path id="path3" d="M203.073 22.026 C 203.445 22.072,204.055 22.072,204.427 22.026 C 204.799 21.979,204.495 21.942,203.750 21.942 C 203.005 21.942,202.701 21.979,203.073 22.026 M128.947 43.073 L 128.229 43.854 129.010 43.136 C 129.738 42.468,129.887 42.292,129.728 42.292 C 129.694 42.292,129.342 42.643,128.947 43.073 M123.530 48.490 L 122.813 49.271 123.594 48.553 C 124.321 47.885,124.471 47.708,124.312 47.708 C 124.277 47.708,123.925 48.060,123.530 48.490 M133.743 50.156 L 132.604 51.354 133.802 50.215 C 134.915 49.158,135.095 48.958,134.941 48.958 C 134.908 48.958,134.369 49.497,133.743 50.156 M275.208 51.563 C 275.831 52.193,276.387 52.708,276.444 52.708 C 276.501 52.708,276.039 52.193,275.417 51.563 C 274.794 50.932,274.238 50.417,274.181 50.417 C 274.124 50.417,274.586 50.932,275.208 51.563 M138.216 52.552 L 137.604 53.229 138.281 52.617 C 138.654 52.281,138.958 51.976,138.958 51.940 C 138.958 51.779,138.786 51.921,138.216 52.552 M130.618 53.281 L 129.479 54.479 130.677 53.340 C 131.336 52.714,131.875 52.175,131.875 52.143 C 131.875 51.988,131.676 52.168,130.618 53.281 M271.871 55.052 C 273.900 57.132,274.167 57.386,274.167 57.236 C 274.167 57.205,273.159 56.197,271.927 54.996 L 269.688 52.813 271.871 55.052 M133.008 57.760 L 132.396 58.438 133.073 57.826 C 133.445 57.489,133.750 57.184,133.750 57.149 C 133.750 56.988,133.578 57.129,133.008 57.760 M166.758 73.385 L 166.146 74.063 166.823 73.451 C 167.195 73.114,167.500 72.809,167.500 72.774 C 167.500 72.613,167.328 72.754,166.758 73.385 M164.466 75.677 L 163.854 76.354 164.531 75.742 C 164.904 75.406,165.208 75.101,165.208 75.065 C 165.208 74.904,165.036 75.046,164.466 75.677 M154.684 121.563 C 154.684 134.969,154.709 140.422,154.740 133.682 C 154.770 126.941,154.770 115.972,154.740 109.307 C 154.709 102.641,154.684 108.156,154.684 121.563 M304.840 118.333 C 304.840 118.734,304.883 118.898,304.935 118.698 C 304.988 118.497,304.988 118.169,304.935 117.969 C 304.883 117.768,304.840 117.932,304.840 118.333 M300.053 118.646 C 300.055 119.104,300.098 119.267,300.147 119.008 C 300.197 118.749,300.195 118.374,300.143 118.175 C 300.091 117.975,300.050 118.188,300.053 118.646 M94.041 123.542 C 94.041 125.203,94.073 125.883,94.113 125.052 C 94.153 124.221,94.153 122.862,94.113 122.031 C 94.073 121.201,94.041 121.880,94.041 123.542 M102.578 123.229 C 102.578 124.490,102.613 124.978,102.654 124.315 C 102.696 123.652,102.695 122.621,102.653 122.024 C 102.611 121.426,102.577 121.969,102.578 123.229 M107.364 123.125 C 107.364 124.099,107.400 124.497,107.444 124.010 C 107.488 123.523,107.488 122.727,107.444 122.240 C 107.400 121.753,107.364 122.151,107.364 123.125 M300.048 127.708 C 300.048 128.109,300.091 128.273,300.144 128.073 C 300.196 127.872,300.196 127.544,300.144 127.344 C 300.091 127.143,300.048 127.307,300.048 127.708 M304.840 128.125 C 304.840 128.526,304.883 128.690,304.935 128.490 C 304.988 128.289,304.988 127.961,304.935 127.760 C 304.883 127.560,304.840 127.724,304.840 128.125 M228.636 142.396 C 228.636 146.750,228.664 148.561,228.698 146.420 C 228.731 144.279,228.731 140.717,228.698 138.503 C 228.664 136.290,228.636 138.042,228.636 142.396 M179.435 141.771 C 179.436 142.344,179.477 142.553,179.524 142.237 C 179.572 141.920,179.571 141.451,179.522 141.195 C 179.472 140.939,179.433 141.198,179.435 141.771 M184.991 156.719 C 185.502 157.263,185.947 157.708,185.981 157.708 C 186.137 157.708,185.972 157.521,185.052 156.658 L 184.063 155.729 184.991 156.719 M225.405 156.823 L 224.688 157.604 225.469 156.886 C 226.196 156.218,226.346 156.042,226.187 156.042 C 226.152 156.042,225.800 156.393,225.405 156.823 M244.989 171.198 L 244.271 171.979 245.052 171.261 C 245.779 170.593,245.929 170.417,245.770 170.417 C 245.735 170.417,245.384 170.768,244.989 171.198 M166.033 172.344 C 166.544 172.888,166.989 173.333,167.023 173.333 C 167.179 173.333,167.014 173.146,166.094 172.283 L 165.104 171.354 166.033 172.344 M243.322 172.865 L 242.604 173.646 243.385 172.928 C 244.113 172.260,244.262 172.083,244.103 172.083 C 244.069 172.083,243.717 172.435,243.322 172.865 M183.851 192.031 L 183.854 202.396 190.729 202.400 L 197.604 202.404 190.783 202.345 L 183.962 202.286 183.905 191.976 L 183.848 181.667 183.851 192.031 M211.559 192.188 L 211.563 202.396 218.438 202.400 L 225.313 202.404 218.492 202.345 L 211.671 202.286 211.614 192.133 L 211.556 181.979 211.559 192.188 M135.625 191.354 C 137.054 192.786,138.270 193.958,138.327 193.958 C 138.384 193.958,137.262 192.786,135.833 191.354 C 134.404 189.922,133.189 188.750,133.131 188.750 C 133.074 188.750,134.196 189.922,135.625 191.354 M271.875 191.354 C 271.369 191.870,271.002 192.292,271.059 192.292 C 271.116 192.292,271.577 191.870,272.083 191.354 C 272.589 190.839,272.957 190.417,272.899 190.417 C 272.842 190.417,272.381 190.839,271.875 191.354 M278.008 191.927 L 277.396 192.604 278.073 191.992 C 278.704 191.422,278.846 191.250,278.685 191.250 C 278.649 191.250,278.344 191.555,278.008 191.927 M132.188 194.792 C 133.214 195.823,134.101 196.667,134.158 196.667 C 134.215 196.667,133.422 195.823,132.396 194.792 C 131.369 193.760,130.483 192.917,130.425 192.917 C 130.368 192.917,131.161 193.760,132.188 194.792 M272.383 197.552 L 271.771 198.229 272.448 197.617 C 273.079 197.047,273.221 196.875,273.060 196.875 C 273.024 196.875,272.719 197.180,272.383 197.552 M126.250 201.563 C 127.564 202.880,128.686 203.958,128.743 203.958 C 128.800 203.958,127.772 202.880,126.458 201.563 C 125.144 200.245,124.022 199.167,123.965 199.167 C 123.908 199.167,124.936 200.245,126.250 201.563 M198.594 219.519 C 198.794 219.571,199.122 219.571,199.323 219.519 C 199.523 219.466,199.359 219.423,198.958 219.423 C 198.557 219.423,198.393 219.466,198.594 219.519 M208.385 219.519 C 208.586 219.571,208.914 219.571,209.115 219.519 C 209.315 219.466,209.151 219.423,208.750 219.423 C 208.349 219.423,208.185 219.466,208.385 219.519 M208.594 224.310 C 208.794 224.363,209.122 224.363,209.323 224.310 C 209.523 224.258,209.359 224.215,208.958 224.215 C 208.557 224.215,208.393 224.258,208.594 224.310 " stroke="none" fill="#848494" fill-rule="evenodd"></path><path id="path4" d="M201.730 7.864 C 202.968 7.901,204.937 7.901,206.105 7.864 C 207.273 7.827,206.260 7.796,203.854 7.797 C 201.448 7.797,200.492 7.827,201.730 7.864 M195.990 8.064 C 196.247 8.113,196.669 8.113,196.927 8.064 C 197.185 8.014,196.974 7.973,196.458 7.973 C 195.943 7.973,195.732 8.014,195.990 8.064 M210.781 8.064 C 211.039 8.113,211.461 8.113,211.719 8.064 C 211.977 8.014,211.766 7.973,211.250 7.973 C 210.734 7.973,210.523 8.014,210.781 8.064 M193.177 8.269 C 193.378 8.321,193.706 8.321,193.906 8.269 C 194.107 8.216,193.943 8.173,193.542 8.173 C 193.141 8.173,192.977 8.216,193.177 8.269 M213.594 8.269 C 213.794 8.321,214.122 8.321,214.323 8.269 C 214.523 8.216,214.359 8.173,213.958 8.173 C 213.557 8.173,213.393 8.216,213.594 8.269 M199.118 13.484 C 199.493 13.531,200.055 13.530,200.368 13.482 C 200.681 13.435,200.375 13.397,199.688 13.398 C 199.000 13.399,198.744 13.438,199.118 13.484 M208.068 13.484 C 208.438 13.530,209.094 13.530,209.527 13.485 C 209.959 13.440,209.656 13.403,208.854 13.402 C 208.052 13.401,207.698 13.438,208.068 13.484 M212.242 13.689 C 212.501 13.739,212.876 13.737,213.075 13.685 C 213.275 13.633,213.063 13.592,212.604 13.594 C 212.146 13.597,211.983 13.639,212.242 13.689 M282.500 37.982 C 282.500 38.018,282.805 38.322,283.177 38.659 L 283.854 39.271 283.242 38.594 C 282.672 37.963,282.500 37.821,282.500 37.982 M120.518 42.344 L 117.604 45.313 120.573 42.399 C 123.331 39.692,123.636 39.375,123.487 39.375 C 123.457 39.375,122.121 40.711,120.518 42.344 M286.875 42.188 C 287.613 42.932,288.264 43.542,288.321 43.542 C 288.379 43.542,287.822 42.932,287.083 42.188 C 286.345 41.443,285.694 40.833,285.637 40.833 C 285.580 40.833,286.137 41.443,286.875 42.188 M282.188 45.625 C 283.214 46.656,284.101 47.500,284.158 47.500 C 284.215 47.500,283.422 46.656,282.396 45.625 C 281.369 44.594,280.483 43.750,280.425 43.750 C 280.368 43.750,281.161 44.594,282.188 45.625 M290.208 45.690 C 290.208 45.726,290.513 46.031,290.885 46.367 L 291.563 46.979 290.951 46.302 C 290.380 45.671,290.208 45.529,290.208 45.690 M86.507 115.000 C 86.507 115.401,86.550 115.565,86.602 115.365 C 86.654 115.164,86.654 114.836,86.602 114.635 C 86.550 114.435,86.507 114.599,86.507 115.000 M314.219 115.521 C 314.222 115.979,314.264 116.142,314.314 115.883 C 314.364 115.624,314.362 115.249,314.310 115.050 C 314.258 114.850,314.217 115.063,314.219 115.521 M321.094 115.938 C 321.097 116.396,321.139 116.559,321.189 116.300 C 321.239 116.041,321.237 115.666,321.185 115.466 C 321.133 115.267,321.092 115.479,321.094 115.938 M86.307 117.708 C 86.307 118.224,86.347 118.435,86.397 118.177 C 86.447 117.919,86.447 117.497,86.397 117.240 C 86.347 116.982,86.307 117.193,86.307 117.708 M314.443 119.479 C 314.444 120.281,314.482 120.584,314.527 120.152 C 314.572 119.719,314.571 119.063,314.525 118.693 C 314.479 118.323,314.442 118.677,314.443 119.479 M321.310 119.063 C 321.311 119.635,321.352 119.845,321.399 119.528 C 321.447 119.212,321.446 118.743,321.397 118.487 C 321.347 118.230,321.308 118.490,321.310 119.063 M86.120 122.604 C 86.120 123.865,86.154 124.353,86.196 123.690 C 86.237 123.027,86.237 121.996,86.195 121.399 C 86.153 120.801,86.119 121.344,86.120 122.604 M321.538 125.521 C 321.538 126.896,321.572 127.431,321.613 126.711 C 321.654 125.990,321.653 124.865,321.612 124.211 C 321.571 123.556,321.537 124.146,321.538 125.521 M86.119 128.333 C 86.119 129.536,86.153 130.029,86.195 129.427 C 86.237 128.826,86.237 127.841,86.195 127.240 C 86.153 126.638,86.119 127.130,86.119 128.333 M314.445 127.708 C 314.445 128.568,314.482 128.919,314.527 128.490 C 314.572 128.060,314.572 127.357,314.527 126.927 C 314.482 126.497,314.445 126.849,314.445 127.708 M314.219 131.771 C 314.222 132.229,314.264 132.392,314.314 132.133 C 314.364 131.874,314.362 131.499,314.310 131.300 C 314.258 131.100,314.217 131.313,314.219 131.771 M321.310 131.979 C 321.311 132.552,321.352 132.762,321.399 132.445 C 321.447 132.128,321.446 131.660,321.397 131.403 C 321.347 131.147,321.308 131.406,321.310 131.979 M86.307 133.333 C 86.307 133.849,86.347 134.060,86.397 133.802 C 86.447 133.544,86.447 133.122,86.397 132.865 C 86.347 132.607,86.307 132.818,86.307 133.333 M321.094 135.104 C 321.097 135.563,321.139 135.725,321.189 135.466 C 321.239 135.207,321.237 134.832,321.185 134.633 C 321.133 134.434,321.092 134.646,321.094 135.104 M86.507 136.042 C 86.507 136.443,86.550 136.607,86.602 136.406 C 86.654 136.206,86.654 135.878,86.602 135.677 C 86.550 135.477,86.507 135.641,86.507 136.042 M285.197 198.490 L 284.479 199.271 285.260 198.553 C 285.988 197.885,286.137 197.708,285.978 197.708 C 285.944 197.708,285.592 198.060,285.197 198.490 M279.049 204.635 L 278.438 205.313 279.115 204.701 C 279.746 204.130,279.887 203.958,279.726 203.958 C 279.691 203.958,279.386 204.263,279.049 204.635 M213.802 233.477 C 214.003 233.529,214.331 233.529,214.531 233.477 C 214.732 233.425,214.568 233.382,214.167 233.382 C 213.766 233.382,213.602 233.425,213.802 233.477 M196.510 233.685 C 196.711 233.738,197.039 233.738,197.240 233.685 C 197.440 233.633,197.276 233.590,196.875 233.590 C 196.474 233.590,196.310 233.633,196.510 233.685 M210.990 233.689 C 211.247 233.738,211.669 233.738,211.927 233.689 C 212.185 233.639,211.974 233.598,211.458 233.598 C 210.943 233.598,210.732 233.639,210.990 233.689 M202.251 233.906 C 203.431 233.943,205.306 233.943,206.417 233.905 C 207.528 233.868,206.563 233.837,204.271 233.838 C 201.979 233.838,201.070 233.868,202.251 233.906 " stroke="none" fill="#0471ac" fill-rule="evenodd"></path></g></svg>